<?xml version="1.0" encoding="utf-8" standalone="yes"?>
<!DOCTYPE svg PUBLIC "-//W3C//DTD SVG 1.1//EN" "http://www.w3.org/Graphics/SVG/1.1/DTD/svg11.dtd">
<svg width="696" height="684" viewBox="0 0 696 684" style="fill:none;stroke:none;fill-rule:evenodd;clip-rule:evenodd;stroke-linecap:round;stroke-linejoin:round;stroke-miterlimit:1.5;" version="1.1" xmlns="http://www.w3.org/2000/svg" xmlns:xlink="http://www.w3.org/1999/xlink"><style class="text-font-style fontImports" data-font-family="Roboto">@import url(https://fonts.googleapis.com/css2?family=Roboto:wght@400;700&amp;amp;display=block);</style><g id="items" style="isolation: isolate"><g id="blend" style="mix-blend-mode: normal"><g id="g-root-cp_1_g-1_1_1cz93nkddq1ae-fill" data-item-order="-373174" transform="translate(206, 86)"><g id="cp_1_g-1_1_1cz93nkddq1ae-fill-merged" stroke="none" fill="#4f92ff"><g><path d="M214 22 V130 H10 V22C10 15.396 15.396 10 22 10 H202C208.616 10 214 15.384 214 22"></path></g></g></g><g id="g-root-cp_0_g-0_1_hz0h4wddq0b3-fill" data-item-order="-373146" transform="translate(206, 206)"><g id="cp_0_g-0_1_hz0h4wddq0b3-fill-merged" stroke="none" fill="#ffffff"><g><path d="M10 394 V10 H214 V394C214 400.627 208.627 406 202 406 H22C15.373 406 10 400.627 10 394"></path></g></g></g><g id="g-root-cp_1-1_cell-1-1_1qf2xmoddq2a0-fill" data-item-order="-373125" transform="translate(218, 218)"></g><g id="g-root-cp_2-1_cell-2-1_8wi8xsddrguh-fill" data-item-order="-373107" transform="translate(218, 290)"></g><g id="g-root-cp_3-1_cell-3-1_m9u6kgddre9u-fill" data-item-order="-373089" transform="translate(218, 362)"></g><g id="g-root-cp_4-1_cell-4-1_1lt0on4ddrevf-fill" data-item-order="-373071" transform="translate(218, 434)"></g><g id="g-root-cp_5-1_cell-5-1_hv9mm8ddrggc-fill" data-item-order="-373053" transform="translate(218, 506)"></g><g id="g-root-cp_1_g-1_2_18jflj4ddrfgl-fill" data-item-order="-373034" transform="translate(434, 86)"><g id="cp_1_g-1_2_18jflj4ddrfgl-fill-merged" stroke="none" fill="#4f92ff"><g><path d="M214 22 V130 H10 V22C10 15.396 15.396 10 22 10 H202C208.616 10 214 15.384 214 22"></path></g></g></g><g id="g-root-cp_0_g-0_2_1urs2bkddreha-fill" data-item-order="-373004" transform="translate(434, 206)"><g id="cp_0_g-0_2_1urs2bkddreha-fill-merged" stroke="none" fill="#ffffff"><g><path d="M10 394 V10 H214 V394C214 400.627 208.627 406 202 406 H22C15.373 406 10 400.627 10 394"></path></g></g></g><g id="g-root-cp_1-2_cell-1-2_9lvwgddrf2f-fill" data-item-order="-372983" transform="translate(446, 218)"></g><g id="g-root-cp_2-2_cell-2-2_1hps0ddssn4-fill" data-item-order="-372965" transform="translate(446, 290)"></g><g id="g-root-cp_3-2_cell-3-2_1hd76ioddst1l-fill" data-item-order="-372947" transform="translate(446, 362)"></g><g id="g-root-cp_4-2_cell-4-2_dfg4hsddsumi-fill" data-item-order="-372929" transform="translate(446, 434)"></g><g id="g-root-cp_5-2_cell-5-2_4loji8ddsuff-fill" data-item-order="-372911" transform="translate(446, 506)"></g><g id="g-root-tx_aiconnec_mb34qoddu77s-fill" data-item-order="0" transform="translate(38, 536)"><g id="tx_aiconnec_mb34qoddu77s-fill-merged" stroke="none" fill="#4f92ff"><g><text style="font: bold 20px Roboto, sans-serif; white-space: pre;" font-weight="bold" font-size="20px" font-family="Roboto, sans-serif"><tspan x="13.16" y="34" dominant-baseline="ideographic">AI Connection</tspan></text></g></g></g><g id="g-root-tx_adaptive_1cwrtfkddbzlx-fill" data-item-order="0" transform="translate(230, 302)"><g id="tx_adaptive_1cwrtfkddbzlx-fill-merged" stroke="none" fill="#4f92ff"><g><text style="font: 15px Roboto, sans-serif; white-space: pre;" font-size="15px" font-family="Roboto, sans-serif"><tspan x="16.15" y="28" dominant-baseline="ideographic">Adaptive AI interview </tspan><tspan x="59.34" y="46" dominant-baseline="ideographic">practice</tspan></text></g></g></g><g id="g-root-tx_aiusage_1d2dh34ddst8l-fill" data-item-order="0" transform="translate(74, 308)"><g id="tx_aiusage_1d2dh34ddst8l-fill-merged" stroke="none" fill="#4f92ff"><g><text style="font: bold 20px Roboto, sans-serif; white-space: pre;" font-weight="bold" font-size="20px" font-family="Roboto, sans-serif"><tspan x="23.34" y="34" dominant-baseline="ideographic">AI Usage</tspan></text></g></g></g><g id="g-root-tx_aidriven_13z8ibkdnr28c-fill" data-item-order="0" transform="translate(488, 302)"><g id="tx_aidriven_13z8ibkdnr28c-fill-merged" stroke="none" fill="#4f92ff"><g><text style="font: 15px Roboto, sans-serif; white-space: pre;" font-size="15px" font-family="Roboto, sans-serif"><tspan x="14.68" y="28" dominant-baseline="ideographic">AI-driven job </tspan><tspan x="14.98" y="46" dominant-baseline="ideographic">descriptions</tspan></text></g></g></g><g id="g-root-tx_assessme_9lvwgddssge-fill" data-item-order="0" transform="translate(50, 380)"><g id="tx_assessme_9lvwgddssge-fill-merged" stroke="none" fill="#4f92ff"><g><text style="font: bold 20px Roboto, sans-serif; white-space: pre;" font-weight="bold" font-size="20px" font-family="Roboto, sans-serif"><tspan x="16.56" y="34" dominant-baseline="ideographic">Assessment</tspan></text></g></g></g><g id="g-root-tx_createro_hriim8dnr01v-fill" data-item-order="0" transform="translate(482, 230)"><g id="tx_createro_hriim8dnr01v-fill-merged" stroke="none" fill="#4f92ff"><g><text style="font: 15px Roboto, sans-serif; white-space: pre;" font-size="15px" font-family="Roboto, sans-serif"><tspan x="15.48" y="28" dominant-baseline="ideographic">Create roles &amp; </tspan><tspan x="32.27" y="46" dominant-baseline="ideographic">pipelines</tspan></text></g></g></g><g id="g-root-tx_instantf_hwj6wwddbymm-fill" data-item-order="0" transform="translate(242, 374)"><g id="tx_instantf_hwj6wwddbymm-fill-merged" stroke="none" fill="#4f92ff"><g><text style="font: 15px Roboto, sans-serif; white-space: pre;" font-size="15px" font-family="Roboto, sans-serif"><tspan x="16.89" y="28" dominant-baseline="ideographic">Instant feedback, </tspan><tspan x="24.63" y="46" dominant-baseline="ideographic">hints, analytics</tspan></text></g></g></g><g id="g-root-tx_preparep_1cuwe68ddc0lo-fill" data-item-order="0" transform="translate(242, 236)"><g id="tx_preparep_1cuwe68ddc0lo-fill-merged" stroke="none" fill="#4f92ff"><g><text style="font: 15px Roboto, sans-serif; white-space: pre;" font-size="15px" font-family="Roboto, sans-serif"><tspan x="14.9" y="31" dominant-baseline="ideographic">Prepare &amp; practice</tspan></text></g></g></g><g id="g-root-tx_oneclick_1hckfy8dnqznp-fill" data-item-order="0" transform="translate(488, 374)"><g id="tx_oneclick_1hckfy8dnqznp-fill-merged" stroke="none" fill="#4f92ff"><g><text style="font: 15px Roboto, sans-serif; white-space: pre;" font-size="15px" font-family="Roboto, sans-serif"><tspan x="27.34" y="28" dominant-baseline="ideographic">One-click </tspan><tspan x="13.44" y="46" dominant-baseline="ideographic">assessments</tspan></text></g></g></g><g id="g-root-tx_results_hris3kddu9zj-fill" data-item-order="0" transform="translate(98, 452)"><g id="tx_results_hris3kddu9zj-fill-merged" stroke="none" fill="#4f92ff"><g><text style="font: bold 20px Roboto, sans-serif; white-space: pre;" font-weight="bold" font-size="20px" font-family="Roboto, sans-serif"><tspan x="12.58" y="34" dominant-baseline="ideographic">Results</tspan></text></g></g></g><g id="g-root-ic_grad_91i1moddu7sy-fill" data-item-order="0" transform="translate(284, 110)"></g><g id="g-root-tx_shareabl_1usf5j4ddbztb-fill" data-item-order="0" transform="translate(248, 446)"><g id="tx_shareabl_1usf5j4ddbztb-fill-merged" stroke="none" fill="#4f92ff"><g><text style="font: 15px Roboto, sans-serif; white-space: pre;" font-size="15px" font-family="Roboto, sans-serif"><tspan x="21.79" y="28" dominant-baseline="ideographic">Shareable skill </tspan><tspan x="14.63" y="46" dominant-baseline="ideographic">badges &amp; scores</tspan></text></g></g></g><g id="g-root-tx_actions_hye01sddsv0k-fill" data-item-order="0" transform="translate(86, 236)"><g id="tx_actions_hye01sddsv0k-fill-merged" stroke="none" fill="#4f92ff"><g><text style="font: bold 20px Roboto, sans-serif; white-space: pre;" font-weight="bold" font-size="20px" font-family="Roboto, sans-serif"><tspan x="23.3" y="34" dominant-baseline="ideographic">Actions</tspan></text></g></g></g><g id="g-root-tx_atsready_3zcn4dnqznq-fill" data-item-order="0" transform="translate(464, 446)"><g id="tx_atsready_3zcn4dnqznq-fill-merged" stroke="none" fill="#4f92ff"><g><text style="font: 15px Roboto, sans-serif; white-space: pre;" font-size="15px" font-family="Roboto, sans-serif"><tspan x="14.09" y="28" dominant-baseline="ideographic">ATS-ready reports &amp; </tspan><tspan x="48.82" y="46" dominant-baseline="ideographic">shortlists</tspan></text></g></g></g><g id="g-root-tx_recruite_8z5c0dnploi-fill" data-item-order="0" transform="translate(482, 170)"><g id="tx_recruite_8z5c0dnploi-fill-merged" stroke="none" fill="#ffffff"><g><text style="font: bold 20px Roboto, sans-serif; white-space: pre;" font-weight="bold" font-size="20px" font-family="Roboto, sans-serif"><tspan x="17.48" y="34" dominant-baseline="ideographic">Recruiters</tspan></text></g></g></g><g id="g-root-tx_showcase_1uuaksgddbytk-fill" data-item-order="0" transform="translate(236, 530)"><g id="tx_showcase_1uuaksgddbytk-fill-merged" stroke="none" fill="#4f92ff"><g><text style="font: 15px Roboto, sans-serif; white-space: pre;" font-size="15px" font-family="Roboto, sans-serif"><tspan x="11.93" y="28" dominant-baseline="ideographic">Showcase skills with </tspan><tspan x="66.23" y="46" dominant-baseline="ideographic">data</tspan></text></g></g></g><g id="g-root-tx_students_94my0wddx14z-fill" data-item-order="0" transform="translate(260, 170)"><g id="tx_students_94my0wddx14z-fill-merged" stroke="none" fill="#ffffff"><g><text style="font: bold 20px Roboto, sans-serif; white-space: pre;" font-weight="bold" font-size="20px" font-family="Roboto, sans-serif"><tspan x="17.7" y="34" dominant-baseline="ideographic">Students</tspan></text></g></g></g><g id="g-root-tx_biasfree_hwibb4dnqzgn-fill" data-item-order="0" transform="translate(494, 518)"><g id="tx_biasfree_hwibb4dnqzgn-fill-merged" stroke="none" fill="#4f92ff"><g><text style="font: 15px Roboto, sans-serif; white-space: pre;" font-size="15px" font-family="Roboto, sans-serif"><tspan x="19.1" y="31" dominant-baseline="ideographic">Bias-free, </tspan><tspan x="11.85" y="49" dominant-baseline="ideographic">transparent </tspan><tspan x="18.18" y="67" dominant-baseline="ideographic">decisions</tspan></text></g></g></g><g id="g-root-ic_woma_1hapwaoddddz5-fill" data-item-order="0" transform="translate(512, 110)"></g><g id="g-root-cp_1_g-1_1_1cz93nkddq1ae-stroke" data-item-order="-373174" transform="translate(206, 86)"></g><g id="g-root-cp_0_g-0_1_hz0h4wddq0b3-stroke" data-item-order="-373146" transform="translate(206, 206)"></g><g id="g-root-cp_1-1_cell-1-1_1qf2xmoddq2a0-stroke" data-item-order="-373125" transform="translate(218, 218)"><g id="cp_1-1_cell-1-1_1qf2xmoddq2a0-stroke" fill="none" stroke-linecap="round" stroke-linejoin="round" stroke-miterlimit="4" stroke="#4f92ff" stroke-width="1"><g><path d="M 10 22L 10 16C 10 12.6863 12.6863 10 16 10L 22 10M 190 22L 190 58M 10 58L 10 22M 22 10L 178 10M 10 58L 10 64C 10 67.3137 12.6863 70 16 70L 22 70M 190 22L 190 16C 190 12.6863 187.3137 10 184 10L 178 10M 178 70L 22 70M 190 58L 190 64C 190 67.3137 187.3137 70 184 70L 178 70"></path></g></g></g><g id="g-root-cp_2-1_cell-2-1_8wi8xsddrguh-stroke" data-item-order="-373107" transform="translate(218, 290)"><g id="cp_2-1_cell-2-1_8wi8xsddrguh-stroke" fill="none" stroke-linecap="round" stroke-linejoin="round" stroke-miterlimit="4" stroke="#4f92ff" stroke-width="1"><g><path d="M 10 22L 10 16C 10 12.6863 12.6863 10 16 10L 22 10M 190 22L 190 58M 10 58L 10 22M 22 10L 178 10M 10 58L 10 64C 10 67.3137 12.6863 70 16 70L 22 70M 190 22L 190 16C 190 12.6863 187.3137 10 184 10L 178 10M 178 70L 22 70M 190 58L 190 64C 190 67.3137 187.3137 70 184 70L 178 70"></path></g></g></g><g id="g-root-cp_3-1_cell-3-1_m9u6kgddre9u-stroke" data-item-order="-373089" transform="translate(218, 362)"><g id="cp_3-1_cell-3-1_m9u6kgddre9u-stroke" fill="none" stroke-linecap="round" stroke-linejoin="round" stroke-miterlimit="4" stroke="#4f92ff" stroke-width="1"><g><path d="M 10 22L 10 16C 10 12.6863 12.6863 10 16 10L 22 10M 190 22L 190 58M 10 58L 10 22M 22 10L 178 10M 10 58L 10 64C 10 67.3137 12.6863 70 16 70L 22 70M 190 22L 190 16C 190 12.6863 187.3137 10 184 10L 178 10M 178 70L 22 70M 190 58L 190 64C 190 67.3137 187.3137 70 184 70L 178 70"></path></g></g></g><g id="g-root-cp_4-1_cell-4-1_1lt0on4ddrevf-stroke" data-item-order="-373071" transform="translate(218, 434)"><g id="cp_4-1_cell-4-1_1lt0on4ddrevf-stroke" fill="none" stroke-linecap="round" stroke-linejoin="round" stroke-miterlimit="4" stroke="#4f92ff" stroke-width="1"><g><path d="M 10 22L 10 16C 10 12.6863 12.6863 10 16 10L 22 10M 190 22L 190 58M 10 58L 10 22M 22 10L 178 10M 10 58L 10 64C 10 67.3137 12.6863 70 16 70L 22 70M 190 22L 190 16C 190 12.6863 187.3137 10 184 10L 178 10M 178 70L 22 70M 190 58L 190 64C 190 67.3137 187.3137 70 184 70L 178 70"></path></g></g></g><g id="g-root-cp_5-1_cell-5-1_hv9mm8ddrggc-stroke" data-item-order="-373053" transform="translate(218, 506)"><g id="cp_5-1_cell-5-1_hv9mm8ddrggc-stroke" fill="none" stroke-linecap="round" stroke-linejoin="round" stroke-miterlimit="4" stroke="#4f92ff" stroke-width="1"><g><path d="M 10 22L 10 16C 10 12.6863 12.6863 10 16 10L 22 10M 190 22L 190 82M 10 82L 10 22M 22 10L 178 10M 10 82L 10 88C 10 91.3137 12.6863 94 16 94L 22 94M 190 22L 190 16C 190 12.6863 187.3137 10 184 10L 178 10M 178 94L 22 94M 190 82L 190 88C 190 91.3137 187.3137 94 184 94L 178 94"></path></g></g></g><g id="g-root-cp_1_g-1_2_18jflj4ddrfgl-stroke" data-item-order="-373034" transform="translate(434, 86)"></g><g id="g-root-cp_0_g-0_2_1urs2bkddreha-stroke" data-item-order="-373004" transform="translate(434, 206)"></g><g id="g-root-cp_1-2_cell-1-2_9lvwgddrf2f-stroke" data-item-order="-372983" transform="translate(446, 218)"><g id="cp_1-2_cell-1-2_9lvwgddrf2f-stroke" fill="none" stroke-linecap="round" stroke-linejoin="round" stroke-miterlimit="4" stroke="#4f92ff" stroke-width="1"><g><path d="M 10 22L 10 16C 10 12.6863 12.6863 10 16 10L 22 10M 190 22L 190 58M 10 58L 10 22M 22 10L 178 10M 10 58L 10 64C 10 67.3137 12.6863 70 16 70L 22 70M 190 22L 190 16C 190 12.6863 187.3137 10 184 10L 178 10M 178 70L 22 70M 190 58L 190 64C 190 67.3137 187.3137 70 184 70L 178 70"></path></g></g></g><g id="g-root-cp_2-2_cell-2-2_1hps0ddssn4-stroke" data-item-order="-372965" transform="translate(446, 290)"><g id="cp_2-2_cell-2-2_1hps0ddssn4-stroke" fill="none" stroke-linecap="round" stroke-linejoin="round" stroke-miterlimit="4" stroke="#4f92ff" stroke-width="1"><g><path d="M 10 22L 10 16C 10 12.6863 12.6863 10 16 10L 22 10M 190 22L 190 58M 10 58L 10 22M 22 10L 178 10M 10 58L 10 64C 10 67.3137 12.6863 70 16 70L 22 70M 190 22L 190 16C 190 12.6863 187.3137 10 184 10L 178 10M 178 70L 22 70M 190 58L 190 64C 190 67.3137 187.3137 70 184 70L 178 70"></path></g></g></g><g id="g-root-cp_3-2_cell-3-2_1hd76ioddst1l-stroke" data-item-order="-372947" transform="translate(446, 362)"><g id="cp_3-2_cell-3-2_1hd76ioddst1l-stroke" fill="none" stroke-linecap="round" stroke-linejoin="round" stroke-miterlimit="4" stroke="#4f92ff" stroke-width="1"><g><path d="M 10 22L 10 16C 10 12.6863 12.6863 10 16 10L 22 10M 190 22L 190 58M 10 58L 10 22M 22 10L 178 10M 10 58L 10 64C 10 67.3137 12.6863 70 16 70L 22 70M 190 22L 190 16C 190 12.6863 187.3137 10 184 10L 178 10M 178 70L 22 70M 190 58L 190 64C 190 67.3137 187.3137 70 184 70L 178 70"></path></g></g></g><g id="g-root-cp_4-2_cell-4-2_dfg4hsddsumi-stroke" data-item-order="-372929" transform="translate(446, 434)"><g id="cp_4-2_cell-4-2_dfg4hsddsumi-stroke" fill="none" stroke-linecap="round" stroke-linejoin="round" stroke-miterlimit="4" stroke="#4f92ff" stroke-width="1"><g><path d="M 10 22L 10 16C 10 12.6863 12.6863 10 16 10L 22 10M 190 22L 190 58M 10 58L 10 22M 22 10L 178 10M 10 58L 10 64C 10 67.3137 12.6863 70 16 70L 22 70M 190 22L 190 16C 190 12.6863 187.3137 10 184 10L 178 10M 178 70L 22 70M 190 58L 190 64C 190 67.3137 187.3137 70 184 70L 178 70"></path></g></g></g><g id="g-root-cp_5-2_cell-5-2_4loji8ddsuff-stroke" data-item-order="-372911" transform="translate(446, 506)"><g id="cp_5-2_cell-5-2_4loji8ddsuff-stroke" fill="none" stroke-linecap="round" stroke-linejoin="round" stroke-miterlimit="4" stroke="#4f92ff" stroke-width="1"><g><path d="M 10 22L 10 16C 10 12.6863 12.6863 10 16 10L 22 10M 190 22L 190 82M 10 82L 10 22M 22 10L 178 10M 10 82L 10 88C 10 91.3137 12.6863 94 16 94L 22 94M 190 22L 190 16C 190 12.6863 187.3137 10 184 10L 178 10M 178 94L 22 94M 190 82L 190 88C 190 91.3137 187.3137 94 184 94L 178 94"></path></g></g></g><g id="g-root-tx_aiconnec_mb34qoddu77s-stroke" data-item-order="0" transform="translate(38, 536)"></g><g id="g-root-tx_adaptive_1cwrtfkddbzlx-stroke" data-item-order="0" transform="translate(230, 302)"></g><g id="g-root-tx_aiusage_1d2dh34ddst8l-stroke" data-item-order="0" transform="translate(74, 308)"></g><g id="g-root-tx_aidriven_13z8ibkdnr28c-stroke" data-item-order="0" transform="translate(488, 302)"></g><g id="g-root-tx_assessme_9lvwgddssge-stroke" data-item-order="0" transform="translate(50, 380)"></g><g id="g-root-tx_createro_hriim8dnr01v-stroke" data-item-order="0" transform="translate(482, 230)"></g><g id="g-root-tx_instantf_hwj6wwddbymm-stroke" data-item-order="0" transform="translate(242, 374)"></g><g id="g-root-tx_preparep_1cuwe68ddc0lo-stroke" data-item-order="0" transform="translate(242, 236)"></g><g id="g-root-tx_oneclick_1hckfy8dnqznp-stroke" data-item-order="0" transform="translate(488, 374)"></g><g id="g-root-tx_results_hris3kddu9zj-stroke" data-item-order="0" transform="translate(98, 452)"></g><g id="g-root-ic_grad_91i1moddu7sy-stroke" data-item-order="0" transform="translate(284, 110)"><g id="ic_grad_91i1moddu7sy-stroke" fill="none" stroke-linecap="round" stroke-linejoin="round" stroke-miterlimit="4" stroke="#ffffff" stroke-width="1"><g><path d="M 53.330002 47.666L 53.330002 52.638C 53.329494 53.459591 52.826588 54.197296 52.062 54.498001L 46.032001 56.872002C 45.580574 57.040668 45.083427 57.040668 44.632 56.872002L 38.599998 54.498001C 37.836201 54.196659 37.334183 53.459095 37.334 52.638L 37.334 47.666M 44.944 41.16L 33.330002 46L 44.944 50.84C 45.190376 50.94278 45.467621 50.94278 45.714001 50.84L 56.222 46.462002C 56.408913 46.384647 56.530804 46.20229 56.530804 46C 56.530804 45.79771 56.408913 45.615353 56.222 45.537998L 45.714001 41.16C 45.467621 41.05722 45.190376 41.05722 44.944 41.16ZM 10 10M 33.330002 46L 33.330002 53M 11.33 41C 11.33 34.372581 16.702583 29 23.33 29C 29.957417 29 35.330002 34.372581 35.330002 41ZM 15.83 18.5C 15.830001 22.642136 19.187866 26 23.330002 26C 27.472136 26 30.83 22.642136 30.83 18.5C 30.83 14.357864 27.472136 11 23.330002 11C 19.187866 11 15.830001 14.357864 15.830001 18.5ZM 34.830002 18.5C 34.830002 22.642136 38.187866 26 42.330002 26C 46.472137 26 49.830002 22.642136 49.830002 18.5C 49.830002 14.357864 46.472137 11 42.330002 11C 38.187866 11 34.830002 14.357864 34.830002 18.5ZM 36.360001 30.587999C 39.771221 28.631594 43.924538 28.470686 47.476898 30.157309C 51.029259 31.843931 53.529827 35.164036 54.170002 39.043999"></path></g></g></g><g id="g-root-tx_shareabl_1usf5j4ddbztb-stroke" data-item-order="0" transform="translate(248, 446)"></g><g id="g-root-tx_actions_hye01sddsv0k-stroke" data-item-order="0" transform="translate(86, 236)"></g><g id="g-root-tx_atsready_3zcn4dnqznq-stroke" data-item-order="0" transform="translate(464, 446)"></g><g id="g-root-tx_recruite_8z5c0dnploi-stroke" data-item-order="0" transform="translate(482, 170)"></g><g id="g-root-tx_showcase_1uuaksgddbytk-stroke" data-item-order="0" transform="translate(236, 530)"></g><g id="g-root-tx_students_94my0wddx14z-stroke" data-item-order="0" transform="translate(260, 170)"></g><g id="g-root-tx_biasfree_hwibb4dnqzgn-stroke" data-item-order="0" transform="translate(494, 518)"></g><g id="g-root-ic_woma_1hapwaoddddz5-stroke" data-item-order="0" transform="translate(512, 110)"><g id="ic_woma_1hapwaoddddz5-stroke" fill="none" stroke-linecap="round" stroke-linejoin="round" stroke-miterlimit="4" stroke="#ffffff" stroke-width="1"><g><path d="M 35.024002 21.152C 35.024002 26.154594 39.079407 30.209999 44.082001 30.209999C 49.084595 30.209999 53.139999 26.154594 53.139999 21.152C 53.139999 16.149405 49.084595 12.094 44.082001 12.094C 39.079407 12.094 35.024002 16.149405 35.024002 21.152ZM 57.023998 34.094002L 50.528 27.6M 43.023998 56.094002L 57.023998 56.094002C 57.023926 52.254795 55.02219 48.693398 51.742565 46.69751C 48.462936 44.701626 44.37999 44.560059 40.970001 46.324001M 52.400002 36.091999C 52.223541 38.536762 50.686813 40.67437 48.425617 41.620407C 46.164421 42.566444 43.56332 42.160023 41.698494 40.569294C 39.833672 38.978561 39.02227 36.47406 39.599998 34.092003M 35.220001 39.290001C 34.102859 37.453415 33.546738 35.330414 33.619999 33.181999L 33.620003 30.684C 33.74728 27.531286 32.137871 24.562027 29.426781 22.947779C 26.715691 21.333529 23.33831 21.333529 20.62722 22.947779C 17.916132 24.562027 16.306721 27.531286 16.434 30.684002L 16.434 33.181999C 16.507263 35.330414 15.951139 37.453415 14.834 39.290001M 16.43 32.104C 19.73263 32.101048 22.871014 30.663231 25.030001 28.164001C 27.188334 30.664099 30.327139 32.102112 33.630001 32.104M 32.599998 32.057999C 32.41391 36.105759 29.078032 39.291798 25.026001 39.291798C 20.973969 39.291798 17.638088 36.105759 17.452 32.057999M 39.024002 56.094002C 39.024002 48.362015 32.755989 42.094002 25.024002 42.094002C 17.292015 42.094002 11.024 48.362015 11.024 56.094002ZM 32.104 44.014L 25.024 51.094002L 17.944 44.014"></path></g></g></g></g></g><path id="w1d0iegjdxtg5k" d="M65.283 12.757a.35.35 0 0 0 .584.157l5.203-5.141-6.183 3.523.396 1.461zm-2.216-11.7a.35.35 0 0 0-.522.305v3.111l3.276-1.868-2.754-1.548zm3.728 2.105l-4.25 2.421v2.445l6.391-3.644-2.141-1.222zm4.708 3.303a.35.35 0 0 0 0-.609l-1.592-.9-7.365 4.199v1.782a.35.35 0 0 0 .523.305l8.435-4.777z M44.542 2.513c0-.433.355-.783.792-.783s.792.35.792.783-.355.783-.792.783-.792-.35-.792-.783zm59.171 0c0-.433.355-.783.792-.783s.792.35.792.783-.355.783-.792.783-.792-.35-.792-.783zm-85.951 7.636h-1.27v-.487c-.276.201-.864.609-1.881.609-1.202 0-2.274-.794-2.137-2.078.118-1.106 1.153-1.584 1.848-1.727l2.17-.345c0-.539-.29-.956-1.064-1.006s-1.21.305-1.571 1.017l-1.124-.605c1.218-2.631 5.029-1.764 5.029.414v4.207zm-1.27-2.86c.006.396-.062 1.112-.819 1.59-.587.37-1.841.299-1.903-.395-.049-.555.461-.791.906-.898l1.816-.297zm72.662 2.86h-1.27v-.487c-.276.201-.864.609-1.881.609-1.202 0-2.274-.794-2.137-2.078.118-1.106 1.153-1.584 1.848-1.727l2.17-.345c0-.539-.29-.956-1.064-1.006s-1.21.305-1.571 1.017l-1.124-.605c1.218-2.631 5.029-1.764 5.029.414v4.207zm-1.27-2.86c.006.396-.062 1.112-.82 1.59-.587.37-1.841.299-1.903-.395-.049-.555.461-.791.906-.898l1.816-.297zM99.096 10.149H97.85v-8.45h1.246v4.895l2.68-2.559h1.738l-2.633 2.535 2.715 3.578h-1.556l-2.077-2.707-.867.844v1.863zm6.053-6.114h-1.255v6.113h1.255V4.035zm-59.2 0h-1.255v6.113h1.255V4.035zm5.584 6.113V1.697h1.255v2.695c.361-.346 1-.485 1.47-.485 1.452 0 2.477 1.082 2.457 2.448v3.792h-1.27v-3.68c0-.408-.214-1.339-1.315-1.339-.968 0-1.342.756-1.342 1.339v3.681h-1.255zm-4.76-4.894V4.039h.621a.45.45 0 0 0 .45-.45v-.855h1.251v1.305h1.309v1.215h-1.309v3.109c0 .293.105.664.648.664.365 0 .531-.035.736-.07v1.137s-.361.113-.857.113c-1.398 0-1.777-1.051-1.777-1.788V5.254h-1.071zM36.528 4.039h-1.394l2.191 6.106h1.125l1.234-3.918 1.238 3.918h1.129l2.188-6.106h-1.383l-1.359 3.93-1.256-3.93h-1.124l-1.242 3.957-1.348-3.957zM26.212 7.141c-.02 1.566 1.187 3.129 3.223 3.129 1.566 0 2.383-.918 2.734-1.719L31.172 8c-.315.399-.801 1.094-1.738 1.094-1.145 0-1.825-.781-1.891-1.52h4.625c.074-.284.148-.995-.03-1.559-.336-1.064-1.221-2.102-2.839-2.102s-3.088 1.152-3.088 3.227zm1.363-.75h3.348c-.055-.43-.566-1.301-1.623-1.301a1.79 1.79 0 0 0-1.725 1.301zm-8.758.75c.038 1.758 1.277 3.133 3.145 3.133 1.074 0 1.723-.477 1.961-.672v.547h1.242V1.703h-1.258v2.888c-.414-.36-1.062-.68-1.93-.68-1.91 0-3.198 1.473-3.16 3.23zm1.309-.08c0 1.119.723 1.978 1.836 1.978a1.88 1.88 0 0 0 1.94-1.904c0-1.371-1.011-1.99-1.972-1.99s-1.805.798-1.805 1.916zm76.683-.028C96.771 5.275 95.532 3.9 93.664 3.9c-1.074 0-1.723.477-1.961.672v-.547h-1.242v8.22h1.258V9.583c.414.36 1.063.68 1.93.68 1.91 0 3.198-1.473 3.16-3.23zm-1.309.08c0-1.119-.723-1.978-1.836-1.978a1.88 1.88 0 0 0-1.94 1.904c0 1.371 1.011 1.99 1.972 1.99S95.5 8.231 95.5 7.113zM106.441 10.173V4.036h1.254v.382c.361-.346 1-.485 1.47-.485 1.452 0 2.477 1.082 2.457 2.448v3.792h-1.27V6.492c0-.408-.214-1.339-1.315-1.339-.969 0-1.342.756-1.342 1.339v3.681h-1.254zm-30.383-.021V1.824h1.084l4.215 5.777V1.824h1.32v8.328h-1.094l-4.207-5.796v5.796h-1.319zM5.24 10.149H4V2.377h1.014l2.664 3.597 2.654-3.592h1.03v7.766h-1.256V4.762L7.678 8.068 5.24 4.742v5.407z" transform="translate(560, 650)" fill="#80808088" stroke="none"></path></svg>