<?xml version="1.0" encoding="utf-8" standalone="yes"?>
<!DOCTYPE svg PUBLIC "-//W3C//DTD SVG 1.1//EN" "http://www.w3.org/Graphics/SVG/1.1/DTD/svg11.dtd">
<svg width="696" height="636" viewBox="0 0 696 636" style="fill:none;stroke:none;fill-rule:evenodd;clip-rule:evenodd;stroke-linecap:round;stroke-linejoin:round;stroke-miterlimit:1.5;" version="1.1" xmlns="http://www.w3.org/2000/svg" xmlns:xlink="http://www.w3.org/1999/xlink"><style class="text-font-style fontImports" data-font-family="Roboto">@import url(https://fonts.googleapis.com/css2?family=Roboto:wght@400;700&amp;amp;display=block);</style><g id="items" style="isolation: isolate"><g id="blend" style="mix-blend-mode: normal"><g id="g-root-cp_1_g-1_1_1hdtqpuh9er5z-fill" data-item-order="-349856" transform="translate(206, 98)"><g id="cp_1_g-1_1_1hdtqpuh9er5z-fill-merged" stroke="none" fill="#e0cb15"><g><path d="M214 22 V130 H10 V22C10 15.396 15.396 10 22 10 H202C208.616 10 214 15.384 214 22"></path></g></g></g><g id="g-root-cp_0_g-0_1_zn67b6h9eqdc-fill" data-item-order="-349828" transform="translate(206, 218)"><g id="cp_0_g-0_1_zn67b6h9eqdc-fill-merged" stroke="none" fill="#666666"><g><path d="M10 346 V10 H214 V346C214 352.627 208.627 358 202 358 H22C15.373 358 10 352.627 10 346"></path></g></g></g><g id="g-root-cp_1-1_cell-1-1_58neqh9er61-fill" data-item-order="-349807" transform="translate(218, 230)"></g><g id="g-root-cp_2-1_cell-2-1_1lvio3mh9epe2-fill" data-item-order="-349789" transform="translate(218, 302)"></g><g id="g-root-cp_3-1_cell-3-1_18k25qah9eqyz-fill" data-item-order="-349771" transform="translate(218, 398)"></g><g id="g-root-cp_4-1_cell-4-1_qtembmh9eq6c-fill" data-item-order="-349753" transform="translate(218, 470)"></g><g id="g-root-cp_1_g-1_2_1d1r342h9ep71-fill" data-item-order="-349734" transform="translate(434, 98)"><g id="cp_1_g-1_2_1d1r342h9ep71-fill-merged" stroke="none" fill="#de8431"><g><path d="M214 22 V130 H10 V22C10 15.396 15.396 10 22 10 H202C208.616 10 214 15.384 214 22"></path></g></g></g><g id="g-root-cp_0_g-0_2_1uua1s2h9eozy-fill" data-item-order="-349704" transform="translate(434, 218)"><g id="cp_0_g-0_2_1uua1s2h9eozy-fill-merged" stroke="none" fill="#666666"><g><path d="M10 346 V10 H214 V346C214 352.627 208.627 358 202 358 H22C15.373 358 10 352.627 10 346"></path></g></g></g><g id="g-root-cp_1-2_cell-1-2_mgphmqh9erd3-fill" data-item-order="-349683" transform="translate(446, 230)"></g><g id="g-root-cp_2-2_cell-2-2_1cuvv5uh9g4xs-fill" data-item-order="-349665" transform="translate(446, 302)"></g><g id="g-root-cp_3-2_cell-3-2_8xra82h9g3cx-fill" data-item-order="-349647" transform="translate(446, 398)"></g><g id="g-root-cp_4-2_cell-4-2_qqa8w2h9g35u-fill" data-item-order="-349629" transform="translate(446, 470)"></g><g id="g-root-tx_adaptive_4o6paah9pzb8-fill" data-item-order="0" transform="translate(230, 242)"><g id="tx_adaptive_4o6paah9pzb8-fill-merged" stroke="none" fill="#ffffff"><g><text style="font: 15px Roboto, sans-serif; white-space: pre;" font-size="15px" font-family="Roboto, sans-serif"><tspan x="17.01" y="27.78" dominant-baseline="ideographic">Adaptive AI interview </tspan><tspan x="60.19" y="45.78" dominant-baseline="ideographic">practice</tspan></text></g></g></g><g id="g-root-tx_biasfree_zmjdkyhj5v60-fill" data-item-order="0" transform="translate(470, 482)"><g id="tx_biasfree_zmjdkyhj5v60-fill-merged" stroke="none" fill="#ffffff"><g><text style="font: 15px Roboto, sans-serif; white-space: pre;" font-size="15px" font-family="Roboto, sans-serif"><tspan x="43.1" y="30.77" dominant-baseline="ideographic">Bias-free, </tspan><tspan x="15.32" y="48.78" dominant-baseline="ideographic">transparent hiring </tspan><tspan x="42.2" y="66.78" dominant-baseline="ideographic">decisions</tspan></text></g></g></g><g id="g-root-tx_preparat_1q9gqyqh9g3rf-fill" data-item-order="0" transform="translate(50, 248)"><g id="tx_preparat_1q9gqyqh9g3rf-fill-merged" stroke="none" fill="#484848"><g><text style="font: bold 20px Roboto, sans-serif; white-space: pre;" font-weight="bold" font-size="20px" font-family="Roboto, sans-serif"><tspan x="22.95" y="33.33" dominant-baseline="ideographic">Preparation</tspan></text></g></g></g><g id="g-root-tx_recruite_18efjb6hj5wcq-fill" data-item-order="0" transform="translate(482, 182)"><g id="tx_recruite_18efjb6hj5wcq-fill-merged" stroke="none" fill="#ffffff"><g><text style="font: bold 20px Roboto, sans-serif; white-space: pre;" font-weight="bold" font-size="20px" font-family="Roboto, sans-serif"><tspan x="17.49" y="33.33" dominant-baseline="ideographic">Recruiters</tspan></text></g></g></g><g id="g-root-tx_oneclick_m9tx1ehj5uku-fill" data-item-order="0" transform="translate(464, 314)"><g id="tx_oneclick_m9tx1ehj5uku-fill-merged" stroke="none" fill="#ffffff"><g><text style="font: 15px Roboto, sans-serif; white-space: pre;" font-size="15px" font-family="Roboto, sans-serif"><tspan x="50.29" y="30.77" dominant-baseline="ideographic">One-click </tspan><tspan x="12.04" y="48.78" dominant-baseline="ideographic">assessments across </tspan><tspan x="63.94" y="66.78" dominant-baseline="ideographic">skills</tspan></text></g></g></g><g id="g-root-tx_assessme_hwinwih9g2ys-fill" data-item-order="0" transform="translate(50, 332)"><g id="tx_assessme_hwinwih9g2ys-fill-merged" stroke="none" fill="#484848"><g><text style="font: bold 20px Roboto, sans-serif; white-space: pre;" font-weight="bold" font-size="20px" font-family="Roboto, sans-serif"><tspan x="16.56" y="33.33" dominant-baseline="ideographic">Assessment</tspan></text></g></g></g><g id="g-root-tx_instantf_147d7cyh9pzwt-fill" data-item-order="0" transform="translate(248, 326)"><g id="tx_instantf_147d7cyh9pzwt-fill-merged" stroke="none" fill="#ffffff"><g><text style="font: 15px Roboto, sans-serif; white-space: pre;" font-size="15px" font-family="Roboto, sans-serif"><tspan x="12.37" y="27.78" dominant-baseline="ideographic">Instant feedback </tspan><tspan x="14.23" y="45.78" dominant-baseline="ideographic">and skill badges</tspan></text></g></g></g><g id="g-root-tx_reportin_1448nluh9g559-fill" data-item-order="0" transform="translate(74, 416)"><g id="tx_reportin_1448nluh9g559-fill-merged" stroke="none" fill="#484848"><g><text style="font: bold 20px Roboto, sans-serif; white-space: pre;" font-weight="bold" font-size="20px" font-family="Roboto, sans-serif"><tspan x="15.34" y="33.33" dominant-baseline="ideographic">Reporting</tspan></text></g></g></g><g id="g-root-tx_students_18lxrb6h9pxqb-fill" data-item-order="0" transform="translate(260, 182)"><g id="tx_students_18lxrb6h9pxqb-fill-merged" stroke="none" fill="#ffffff"><g><text style="font: bold 20px Roboto, sans-serif; white-space: pre;" font-weight="bold" font-size="20px" font-family="Roboto, sans-serif"><tspan x="17.7" y="33.33" dominant-baseline="ideographic">Students</tspan></text></g></g></g><g id="g-root-tx_shareabl_911eh9rcwe-fill" data-item-order="0" transform="translate(236, 410)"><g id="tx_shareabl_911eh9rcwe-fill-merged" stroke="none" fill="#ffffff"><g><text style="font: 15px Roboto, sans-serif; white-space: pre;" font-size="15px" font-family="Roboto, sans-serif"><tspan x="13.24" y="27.78" dominant-baseline="ideographic">Shareable readiness </tspan><tspan x="58.36" y="45.78" dominant-baseline="ideographic">scores</tspan></text></g></g></g><g id="g-root-ic_resu_dcyhkyh9rdhk-fill" data-item-order="0" transform="translate(512, 122)"></g><g id="g-root-tx_atsready_1q8tx8ihj5v5z-fill" data-item-order="0" transform="translate(464, 410)"><g id="tx_atsready_1q8tx8ihj5v5z-fill-merged" stroke="none" fill="#ffffff"><g><text style="font: 15px Roboto, sans-serif; white-space: pre;" font-size="15px" font-family="Roboto, sans-serif"><tspan x="14.08" y="27.78" dominant-baseline="ideographic">ATS-ready reports &amp; </tspan><tspan x="48.84" y="45.78" dominant-baseline="ideographic">shortlists</tspan></text></g></g></g><g id="g-root-ic_huma_1hitjeqh9g4qo-fill" data-item-order="0" transform="translate(284, 122)"></g><g id="g-root-tx_comparis_qunkhuh9g5qf-fill" data-item-order="0" transform="translate(56, 38)"><g id="tx_comparis_qunkhuh9g5qf-fill-merged" stroke="none" fill="#484848"><g><text style="font: bold 25px Roboto, sans-serif; white-space: pre;" font-weight="bold" font-size="25px" font-family="Roboto, sans-serif"><tspan x="13.45" y="43" dominant-baseline="ideographic">Comparison of Student and Recruiter Actions</tspan></text></g></g></g><g id="g-root-tx_connecti_742o2h9g3ke-fill" data-item-order="0" transform="translate(62, 500)"><g id="tx_connecti_742o2h9g3ke-fill-merged" stroke="none" fill="#484848"><g><text style="font: bold 20px Roboto, sans-serif; white-space: pre;" font-weight="bold" font-size="20px" font-family="Roboto, sans-serif"><tspan x="13.41" y="33.33" dominant-baseline="ideographic">Connection</tspan></text></g></g></g><g id="g-root-tx_showcase_18f2jcyh9rcpb-fill" data-item-order="0" transform="translate(236, 494)"><g id="tx_showcase_18f2jcyh9rcpb-fill-merged" stroke="none" fill="#ffffff"><g><text style="font: 15px Roboto, sans-serif; white-space: pre;" font-size="15px" font-family="Roboto, sans-serif"><tspan x="11.93" y="27.78" dominant-baseline="ideographic">Showcase skills with </tspan><tspan x="21.44" y="45.78" dominant-baseline="ideographic">performance data</tspan></text></g></g></g><g id="g-root-tx_aidriven_1cw4goyhj5ukt-fill" data-item-order="0" transform="translate(488, 242)"><g id="tx_aidriven_1cw4goyhj5ukt-fill-merged" stroke="none" fill="#ffffff"><g><text style="font: 15px Roboto, sans-serif; white-space: pre;" font-size="15px" font-family="Roboto, sans-serif"><tspan x="14.68" y="27.78" dominant-baseline="ideographic">AI-driven job </tspan><tspan x="14.98" y="45.78" dominant-baseline="ideographic">descriptions</tspan></text></g></g></g><g id="g-root-cp_1_g-1_1_1hdtqpuh9er5z-stroke" data-item-order="-349856" transform="translate(206, 98)"><g id="cp_1_g-1_1_1hdtqpuh9er5z-stroke" fill="none" stroke-linecap="round" stroke-linejoin="round" stroke-miterlimit="4" stroke="#ffffff" stroke-width="2"><g><path d="M 22 10C 15.373 10 10 15.373 10 22M 214 130L 214 22M 10 22L 10 130M 22 10L 202 10M 214 22C 214 15.3826 208.6174 10 202 10"></path></g></g></g><g id="g-root-cp_0_g-0_1_zn67b6h9eqdc-stroke" data-item-order="-349828" transform="translate(206, 218)"><g id="cp_0_g-0_1_zn67b6h9eqdc-stroke" fill="none" stroke-linecap="round" stroke-linejoin="round" stroke-miterlimit="4" stroke="#ffffff" stroke-width="2"><g><path d="M 10 346C 10 352.6274 15.3726 358 22 358M 202 358L 22 358M 202 358C 208.6274 358 214 352.6274 214 346M 214 10L 214 346M 10 346L 10 10M 214 10L 10 10"></path></g></g></g><g id="g-root-cp_1-1_cell-1-1_58neqh9er61-stroke" data-item-order="-349807" transform="translate(218, 230)"><g id="cp_1-1_cell-1-1_58neqh9er61-stroke" fill="none" stroke-linecap="round" stroke-linejoin="round" stroke-miterlimit="4" stroke="#484848" stroke-width="2"><g><path d="M 10 22L 10 16C 10 12.6863 12.6863 10 16 10L 22 10M 190 22L 190 58M 10 58L 10 22M 22 10L 178 10M 10 58L 10 64C 10 67.3137 12.6863 70 16 70L 22 70M 190 22L 190 16C 190 12.6863 187.3137 10 184 10L 178 10M 178 70L 22 70M 190 58L 190 64C 190 67.3137 187.3137 70 184 70L 178 70"></path></g></g></g><g id="g-root-cp_2-1_cell-2-1_1lvio3mh9epe2-stroke" data-item-order="-349789" transform="translate(218, 302)"><g id="cp_2-1_cell-2-1_1lvio3mh9epe2-stroke" fill="none" stroke-linecap="round" stroke-linejoin="round" stroke-miterlimit="4" stroke="#484848" stroke-width="2"><g><path d="M 10 22L 10 16C 10 12.6863 12.6863 10 16 10L 22 10M 190 22L 190 82M 10 82L 10 22M 22 10L 178 10M 10 82L 10 88C 10 91.3137 12.6863 94 16 94L 22 94M 190 22L 190 16C 190 12.6863 187.3137 10 184 10L 178 10M 178 94L 22 94M 190 82L 190 88C 190 91.3137 187.3137 94 184 94L 178 94"></path></g></g></g><g id="g-root-cp_3-1_cell-3-1_18k25qah9eqyz-stroke" data-item-order="-349771" transform="translate(218, 398)"><g id="cp_3-1_cell-3-1_18k25qah9eqyz-stroke" fill="none" stroke-linecap="round" stroke-linejoin="round" stroke-miterlimit="4" stroke="#484848" stroke-width="2"><g><path d="M 10 22L 10 16C 10 12.6863 12.6863 10 16 10L 22 10M 190 22L 190 58M 10 58L 10 22M 22 10L 178 10M 10 58L 10 64C 10 67.3137 12.6863 70 16 70L 22 70M 190 22L 190 16C 190 12.6863 187.3137 10 184 10L 178 10M 178 70L 22 70M 190 58L 190 64C 190 67.3137 187.3137 70 184 70L 178 70"></path></g></g></g><g id="g-root-cp_4-1_cell-4-1_qtembmh9eq6c-stroke" data-item-order="-349753" transform="translate(218, 470)"><g id="cp_4-1_cell-4-1_qtembmh9eq6c-stroke" fill="none" stroke-linecap="round" stroke-linejoin="round" stroke-miterlimit="4" stroke="#484848" stroke-width="2"><g><path d="M 10 22L 10 16C 10 12.6863 12.6863 10 16 10L 22 10M 190 22L 190 82M 10 82L 10 22M 22 10L 178 10M 10 82L 10 88C 10 91.3137 12.6863 94 16 94L 22 94M 190 22L 190 16C 190 12.6863 187.3137 10 184 10L 178 10M 178 94L 22 94M 190 82L 190 88C 190 91.3137 187.3137 94 184 94L 178 94"></path></g></g></g><g id="g-root-cp_1_g-1_2_1d1r342h9ep71-stroke" data-item-order="-349734" transform="translate(434, 98)"><g id="cp_1_g-1_2_1d1r342h9ep71-stroke" fill="none" stroke-linecap="round" stroke-linejoin="round" stroke-miterlimit="4" stroke="#ffffff" stroke-width="2"><g><path d="M 22 10C 15.373 10 10 15.373 10 22M 214 130L 214 22M 10 22L 10 130M 22 10L 202 10M 214 22C 214 15.3826 208.6174 10 202 10"></path></g></g></g><g id="g-root-cp_0_g-0_2_1uua1s2h9eozy-stroke" data-item-order="-349704" transform="translate(434, 218)"><g id="cp_0_g-0_2_1uua1s2h9eozy-stroke" fill="none" stroke-linecap="round" stroke-linejoin="round" stroke-miterlimit="4" stroke="#ffffff" stroke-width="2"><g><path d="M 10 346C 10 352.6274 15.3726 358 22 358M 202 358L 22 358M 202 358C 208.6274 358 214 352.6274 214 346M 214 10L 214 346M 10 346L 10 10M 214 10L 10 10"></path></g></g></g><g id="g-root-cp_1-2_cell-1-2_mgphmqh9erd3-stroke" data-item-order="-349683" transform="translate(446, 230)"><g id="cp_1-2_cell-1-2_mgphmqh9erd3-stroke" fill="none" stroke-linecap="round" stroke-linejoin="round" stroke-miterlimit="4" stroke="#484848" stroke-width="2"><g><path d="M 10 22L 10 16C 10 12.6863 12.6863 10 16 10L 22 10M 190 22L 190 58M 10 58L 10 22M 22 10L 178 10M 10 58L 10 64C 10 67.3137 12.6863 70 16 70L 22 70M 190 22L 190 16C 190 12.6863 187.3137 10 184 10L 178 10M 178 70L 22 70M 190 58L 190 64C 190 67.3137 187.3137 70 184 70L 178 70"></path></g></g></g><g id="g-root-cp_2-2_cell-2-2_1cuvv5uh9g4xs-stroke" data-item-order="-349665" transform="translate(446, 302)"><g id="cp_2-2_cell-2-2_1cuvv5uh9g4xs-stroke" fill="none" stroke-linecap="round" stroke-linejoin="round" stroke-miterlimit="4" stroke="#484848" stroke-width="2"><g><path d="M 10 22L 10 16C 10 12.6863 12.6863 10 16 10L 22 10M 190 22L 190 82M 10 82L 10 22M 22 10L 178 10M 10 82L 10 88C 10 91.3137 12.6863 94 16 94L 22 94M 190 22L 190 16C 190 12.6863 187.3137 10 184 10L 178 10M 178 94L 22 94M 190 82L 190 88C 190 91.3137 187.3137 94 184 94L 178 94"></path></g></g></g><g id="g-root-cp_3-2_cell-3-2_8xra82h9g3cx-stroke" data-item-order="-349647" transform="translate(446, 398)"><g id="cp_3-2_cell-3-2_8xra82h9g3cx-stroke" fill="none" stroke-linecap="round" stroke-linejoin="round" stroke-miterlimit="4" stroke="#484848" stroke-width="2"><g><path d="M 10 22L 10 16C 10 12.6863 12.6863 10 16 10L 22 10M 190 22L 190 58M 10 58L 10 22M 22 10L 178 10M 10 58L 10 64C 10 67.3137 12.6863 70 16 70L 22 70M 190 22L 190 16C 190 12.6863 187.3137 10 184 10L 178 10M 178 70L 22 70M 190 58L 190 64C 190 67.3137 187.3137 70 184 70L 178 70"></path></g></g></g><g id="g-root-cp_4-2_cell-4-2_qqa8w2h9g35u-stroke" data-item-order="-349629" transform="translate(446, 470)"><g id="cp_4-2_cell-4-2_qqa8w2h9g35u-stroke" fill="none" stroke-linecap="round" stroke-linejoin="round" stroke-miterlimit="4" stroke="#484848" stroke-width="2"><g><path d="M 10 22L 10 16C 10 12.6863 12.6863 10 16 10L 22 10M 190 22L 190 82M 10 82L 10 22M 22 10L 178 10M 10 82L 10 88C 10 91.3137 12.6863 94 16 94L 22 94M 190 22L 190 16C 190 12.6863 187.3137 10 184 10L 178 10M 178 94L 22 94M 190 82L 190 88C 190 91.3137 187.3137 94 184 94L 178 94"></path></g></g></g><g id="g-root-tx_adaptive_4o6paah9pzb8-stroke" data-item-order="0" transform="translate(230, 242)"></g><g id="g-root-tx_biasfree_zmjdkyhj5v60-stroke" data-item-order="0" transform="translate(470, 482)"></g><g id="g-root-tx_preparat_1q9gqyqh9g3rf-stroke" data-item-order="0" transform="translate(50, 248)"></g><g id="g-root-tx_recruite_18efjb6hj5wcq-stroke" data-item-order="0" transform="translate(482, 182)"></g><g id="g-root-tx_oneclick_m9tx1ehj5uku-stroke" data-item-order="0" transform="translate(464, 314)"></g><g id="g-root-tx_assessme_hwinwih9g2ys-stroke" data-item-order="0" transform="translate(50, 332)"></g><g id="g-root-tx_instantf_147d7cyh9pzwt-stroke" data-item-order="0" transform="translate(248, 326)"></g><g id="g-root-tx_reportin_1448nluh9g559-stroke" data-item-order="0" transform="translate(74, 416)"></g><g id="g-root-tx_students_18lxrb6h9pxqb-stroke" data-item-order="0" transform="translate(260, 182)"></g><g id="g-root-tx_shareabl_911eh9rcwe-stroke" data-item-order="0" transform="translate(236, 410)"></g><g id="g-root-ic_resu_dcyhkyh9rdhk-stroke" data-item-order="0" transform="translate(512, 122)"><g id="ic_resu_dcyhkyh9rdhk-stroke" fill="none" stroke-linecap="round" stroke-linejoin="round" stroke-miterlimit="4" stroke="#ffffff" stroke-width="2"><g><path d="M 25.528 43.174L 12 43.174L 12 21.493999L 21.576 11.918L 36.260002 11.918L 36.260002 19.75M 17.232 35.472L 23.487999 35.472M 17.232 29.718L 24.85 29.718M 50.5 38.472C 50.500973 42.146484 47.522484 45.125759 43.848 45.125759C 40.173515 45.125759 37.195026 42.146484 37.195999 38.472M 55.911999 56.035999C 54.28978 50.815334 49.466866 47.251591 44 47.234001L 43.849998 47.234001C 38.364578 47.252422 33.52993 50.8395 31.922001 56.084003M 43.757999 23.074001L 30.629999 28.916L 43.810001 34.653999L 56 29.021999L 43.757999 23.074001ZM 32.038002 29.941999L 32.038002 36.360001M 12 21.493999L 21.576 21.493999L 21.576 11.918M 37.195999 32.164001L 37.195999 38.472L 50.5 38.472L 50.5 32.164001"></path></g></g></g><g id="g-root-tx_atsready_1q8tx8ihj5v5z-stroke" data-item-order="0" transform="translate(464, 410)"></g><g id="g-root-ic_huma_1hitjeqh9g4qo-stroke" data-item-order="0" transform="translate(284, 122)"><g id="ic_huma_1hitjeqh9g4qo-stroke" fill="none" stroke-linecap="round" stroke-linejoin="round" stroke-miterlimit="4" stroke="#ffffff" stroke-width="2"><g><path d="M 16 37L 16 31.634001C 16.000261 31.009022 16.292664 30.420097 16.790375 30.042103C 17.288088 29.664108 17.933884 29.540506 18.535999 29.708L 34 34L 34 57L 17.464001 52.400002C 16.601864 52.160183 16.003956 51.376858 16 50.481998L 16 43M 34 57L 50.535999 52.400002C 51.398136 52.160183 51.996044 51.376858 52 50.481998L 52 43M 52 37L 52 31.634001C 51.999737 31.009022 51.707336 30.420097 51.209625 30.042103C 50.711914 29.664108 50.066116 29.540506 49.464001 29.708L 34 34M 27.5 17.501999C 27.5 21.09185 30.410151 24.001999 34 24.001999C 37.589851 24.001999 40.5 21.09185 40.5 17.502001C 40.5 13.912149 37.589851 11.002001 34 11.002001C 30.410151 11.002001 27.5 13.912149 27.5 17.502001ZM 25.493999 31.639999C 27.562222 28.98171 30.644537 27.305389 34 27.014C 37.355965 27.307392 40.438774 28.983192 42.509998 31.639999M 46 36.599998L 38.711998 38.799999C 38.289921 38.926937 38.000717 39.315247 38 39.756001L 38 42.667999C 37.999886 42.984291 38.149406 43.28199 38.403194 43.470757C 38.656982 43.659519 38.985107 43.717091 39.288002 43.625999L 46 41.599998M 16 43C 14.343145 43 13 41.656853 13 40C 13 38.343147 14.343145 37 16 37L 18 37C 18.552284 37 19 37.447716 19 38L 19 42C 19 42.552284 18.552284 43 18 43ZM 52 43C 53.656857 43 55 41.656853 55 40C 55 38.343147 53.656857 37 52 37L 50 37C 49.447716 37 49 37.447716 49 38L 49 42C 49 42.552284 49.447716 43 50 43Z"></path></g></g></g><g id="g-root-tx_comparis_qunkhuh9g5qf-stroke" data-item-order="0" transform="translate(56, 38)"></g><g id="g-root-tx_connecti_742o2h9g3ke-stroke" data-item-order="0" transform="translate(62, 500)"></g><g id="g-root-tx_showcase_18f2jcyh9rcpb-stroke" data-item-order="0" transform="translate(236, 494)"></g><g id="g-root-tx_aidriven_1cw4goyhj5ukt-stroke" data-item-order="0" transform="translate(488, 242)"></g></g></g><path id="w8x5c4ie7gc98" d="M65.283 12.757a.35.35 0 0 0 .584.157l5.203-5.141-6.183 3.523.396 1.461zm-2.216-11.7a.35.35 0 0 0-.522.305v3.111l3.276-1.868-2.754-1.548zm3.728 2.105l-4.25 2.421v2.445l6.391-3.644-2.141-1.222zm4.708 3.303a.35.35 0 0 0 0-.609l-1.592-.9-7.365 4.199v1.782a.35.35 0 0 0 .523.305l8.435-4.777z M44.542 2.513c0-.433.355-.783.792-.783s.792.35.792.783-.355.783-.792.783-.792-.35-.792-.783zm59.171 0c0-.433.355-.783.792-.783s.792.35.792.783-.355.783-.792.783-.792-.35-.792-.783zm-85.951 7.636h-1.27v-.487c-.276.201-.864.609-1.881.609-1.202 0-2.274-.794-2.137-2.078.118-1.106 1.153-1.584 1.848-1.727l2.17-.345c0-.539-.29-.956-1.064-1.006s-1.21.305-1.571 1.017l-1.124-.605c1.218-2.631 5.029-1.764 5.029.414v4.207zm-1.27-2.86c.006.396-.062 1.112-.819 1.59-.587.37-1.841.299-1.903-.395-.049-.555.461-.791.906-.898l1.816-.297zm72.662 2.86h-1.27v-.487c-.276.201-.864.609-1.881.609-1.202 0-2.274-.794-2.137-2.078.118-1.106 1.153-1.584 1.848-1.727l2.17-.345c0-.539-.29-.956-1.064-1.006s-1.21.305-1.571 1.017l-1.124-.605c1.218-2.631 5.029-1.764 5.029.414v4.207zm-1.27-2.86c.006.396-.062 1.112-.82 1.59-.587.37-1.841.299-1.903-.395-.049-.555.461-.791.906-.898l1.816-.297zM99.096 10.149H97.85v-8.45h1.246v4.895l2.68-2.559h1.738l-2.633 2.535 2.715 3.578h-1.556l-2.077-2.707-.867.844v1.863zm6.053-6.114h-1.255v6.113h1.255V4.035zm-59.2 0h-1.255v6.113h1.255V4.035zm5.584 6.113V1.697h1.255v2.695c.361-.346 1-.485 1.47-.485 1.452 0 2.477 1.082 2.457 2.448v3.792h-1.27v-3.68c0-.408-.214-1.339-1.315-1.339-.968 0-1.342.756-1.342 1.339v3.681h-1.255zm-4.76-4.894V4.039h.621a.45.45 0 0 0 .45-.45v-.855h1.251v1.305h1.309v1.215h-1.309v3.109c0 .293.105.664.648.664.365 0 .531-.035.736-.07v1.137s-.361.113-.857.113c-1.398 0-1.777-1.051-1.777-1.788V5.254h-1.071zM36.528 4.039h-1.394l2.191 6.106h1.125l1.234-3.918 1.238 3.918h1.129l2.188-6.106h-1.383l-1.359 3.93-1.256-3.93h-1.124l-1.242 3.957-1.348-3.957zM26.212 7.141c-.02 1.566 1.187 3.129 3.223 3.129 1.566 0 2.383-.918 2.734-1.719L31.172 8c-.315.399-.801 1.094-1.738 1.094-1.145 0-1.825-.781-1.891-1.52h4.625c.074-.284.148-.995-.03-1.559-.336-1.064-1.221-2.102-2.839-2.102s-3.088 1.152-3.088 3.227zm1.363-.75h3.348c-.055-.43-.566-1.301-1.623-1.301a1.79 1.79 0 0 0-1.725 1.301zm-8.758.75c.038 1.758 1.277 3.133 3.145 3.133 1.074 0 1.723-.477 1.961-.672v.547h1.242V1.703h-1.258v2.888c-.414-.36-1.062-.68-1.93-.68-1.91 0-3.198 1.473-3.16 3.23zm1.309-.08c0 1.119.723 1.978 1.836 1.978a1.88 1.88 0 0 0 1.94-1.904c0-1.371-1.011-1.99-1.972-1.99s-1.805.798-1.805 1.916zm76.683-.028C96.771 5.275 95.532 3.9 93.664 3.9c-1.074 0-1.723.477-1.961.672v-.547h-1.242v8.22h1.258V9.583c.414.36 1.063.68 1.93.68 1.91 0 3.198-1.473 3.16-3.23zm-1.309.08c0-1.119-.723-1.978-1.836-1.978a1.88 1.88 0 0 0-1.94 1.904c0 1.371 1.011 1.99 1.972 1.99S95.5 8.231 95.5 7.113zM106.441 10.173V4.036h1.254v.382c.361-.346 1-.485 1.47-.485 1.452 0 2.477 1.082 2.457 2.448v3.792h-1.27V6.492c0-.408-.214-1.339-1.315-1.339-.969 0-1.342.756-1.342 1.339v3.681h-1.254zm-30.383-.021V1.824h1.084l4.215 5.777V1.824h1.32v8.328h-1.094l-4.207-5.796v5.796h-1.319zM5.24 10.149H4V2.377h1.014l2.664 3.597 2.654-3.592h1.03v7.766h-1.256V4.762L7.678 8.068 5.24 4.742v5.407z" transform="translate(560, 601.9999389648438)" fill="#80808088" stroke="none"></path></svg>